<?xml version="1.0" encoding="UTF-8"?>
<svg version="1.1" xmlns="http://www.w3.org/2000/svg" width="512" height="512">
<path d="M0 0 C1.01790619 0.00215515 2.03581238 0.0043103 3.08456421 0.00653076 C17.69363523 0.05620146 32.02575853 0.30709809 46.375 3.3125 C47.34985352 3.51117676 48.32470703 3.70985352 49.32910156 3.91455078 C97.7109774 14.03517194 141.69928269 35.9516877 177.375 70.3125 C178.3640332 71.26068604 178.3640332 71.26068604 179.37304688 72.22802734 C188.86130305 81.37247479 197.6012044 90.66984009 205.375 101.3125 C206.23306152 102.46355017 207.09113451 103.61459177 207.94921875 104.765625 C213.98736829 112.95680614 219.34595521 121.47054105 224.375 130.3125 C224.73948242 130.94430176 225.10396484 131.57610352 225.47949219 132.22705078 C247.08534998 169.97532572 256.85198095 212.74189997 256.6875 255.9375 C256.68534485 256.95540619 256.6831897 257.97331238 256.68096924 259.02206421 C256.63129854 273.63113523 256.38040191 287.96325853 253.375 302.3125 C253.07698486 303.77478027 253.07698486 303.77478027 252.77294922 305.26660156 C242.65232806 353.6484774 220.7358123 397.63678269 186.375 433.3125 C185.74287598 433.97185547 185.11075195 434.63121094 184.45947266 435.31054688 C175.31502521 444.79880305 166.01765991 453.5387044 155.375 461.3125 C154.22394983 462.17056152 153.07290823 463.02863451 151.921875 463.88671875 C143.73224019 469.92427396 135.22961724 475.30707302 126.375 480.3125 C125.66778809 480.7146875 124.96057617 481.116875 124.23193359 481.53125 C101.09654164 494.5566741 75.92537591 503.30551461 49.9375 508.625 C49.21860596 508.77235596 48.49971191 508.91971191 47.7590332 509.0715332 C33.08339502 511.86090125 18.55831162 512.66142619 3.64770508 512.62817383 C0.70811513 512.6250221 -2.2304558 512.64854926 -5.16992188 512.67382812 C-18.54306192 512.71848737 -31.43916711 511.51301542 -44.625 509.3125 C-46.33055054 509.03031616 -46.33055054 509.03031616 -48.07055664 508.74243164 C-91.33802759 500.97044532 -132.38793216 480.98345309 -165.625 452.3125 C-166.37007813 451.67828125 -167.11515625 451.0440625 -167.8828125 450.390625 C-181.38779833 438.57948485 -194.05918743 425.82889772 -204.625 411.3125 C-205.48149066 410.16255169 -206.33826433 409.01281411 -207.1953125 407.86328125 C-213.23534209 399.67315742 -218.61867614 391.16870382 -223.625 382.3125 C-224.0271875 381.60528809 -224.429375 380.89807617 -224.84375 380.16943359 C-237.8691741 357.03404164 -246.61801461 331.86287591 -251.9375 305.875 C-252.08485596 305.15610596 -252.23221191 304.43721191 -252.3840332 303.6965332 C-255.35789088 288.05024391 -255.99800362 272.57681954 -255.9375 256.6875 C-255.93534485 255.66959381 -255.9331897 254.65168762 -255.93096924 253.60293579 C-255.88129854 238.99386477 -255.63040191 224.66174147 -252.625 210.3125 C-252.42632324 209.33764648 -252.22764648 208.36279297 -252.02294922 207.35839844 C-241.90232806 158.9765226 -219.9858123 114.98821731 -185.625 79.3125 C-184.99287598 78.65314453 -184.36075195 77.99378906 -183.70947266 77.31445312 C-174.56502521 67.82619695 -165.26765991 59.0862956 -154.625 51.3125 C-153.47394983 50.45443848 -152.32290823 49.59636549 -151.171875 48.73828125 C-142.98224019 42.70072604 -134.47961724 37.31792698 -125.625 32.3125 C-124.91778809 31.9103125 -124.21057617 31.508125 -123.48193359 31.09375 C-100.34654164 18.0683259 -75.17537591 9.31948539 -49.1875 4 C-48.46860596 3.85264404 -47.74971191 3.70528809 -47.0090332 3.5534668 C-31.36274391 0.57960912 -15.88931954 -0.06050362 0 0 Z " fill="#2AA81A" transform="translate(255.625,-0.3125)"/>
<path d="M0 0 C0.97453125 0.2165625 1.9490625 0.433125 2.953125 0.65625 C35.89760139 8.74787578 62.66179278 30.42436214 80.4453125 58.84765625 C97.3012398 86.85404872 102.71953352 120.96635799 95.390625 152.86328125 C87.15071049 184.91900838 67.26471238 214.51856363 38.72265625 231.83984375 C9.40351414 249.06861798 -24.51220105 256.41691187 -58 248 C-59.21042969 247.69835937 -60.42085938 247.39671875 -61.66796875 247.0859375 C-68.42774944 245.2725176 -74.63791506 243.00957243 -80.890625 239.85546875 C-89.38418052 237.51867395 -98.69150786 241.0159452 -106.9375 243.1875 C-116.91231627 245.73977149 -126.8983079 248.21266718 -136.9375 250.5 C-138.07372803 250.76707764 -139.20995605 251.03415527 -140.38061523 251.30932617 C-141.43966064 251.54756104 -142.49870605 251.7857959 -143.58984375 252.03125 C-144.51659912 252.24330078 -145.44335449 252.45535156 -146.39819336 252.67382812 C-149.24303506 253.03046775 -151.25989288 252.82141783 -154 252 C-154.66 251.34 -155.32 250.68 -156 250 C-155.8089216 247.25484038 -155.47382453 244.702515 -155 242 C-154.84208984 241.09733398 -154.68417969 240.19466797 -154.52148438 239.26464844 C-153.95272599 236.13027268 -153.35573653 233.00243647 -152.75 229.875 C-152.53110107 228.73716064 -152.31220215 227.59932129 -152.08666992 226.42700195 C-150.6341187 218.97872559 -149.02913468 211.57885322 -147.3125 204.1875 C-146.90683435 202.3868803 -146.50185602 200.58610557 -146.09765625 198.78515625 C-145.45647607 195.93354778 -144.7637076 193.13114271 -143.99609375 190.30859375 C-142.25595162 182.88337995 -143.77415885 178.09969579 -147.04248047 171.44091797 C-152.76518604 159.69107787 -155.77961229 146.05010057 -156 133 C-156.01901367 132.27345215 -156.03802734 131.5469043 -156.05761719 130.79833984 C-156.92248098 95.33183539 -146.15751727 63.26657661 -122 37 C-121.20980469 36.12730469 -120.41960937 35.25460938 -119.60546875 34.35546875 C-103.55557309 17.45383734 -81.98532083 5.44067984 -59.3125 0.3125 C-58.41466797 0.10044922 -57.51683594 -0.11160156 -56.59179688 -0.33007812 C-38.00132207 -4.64742649 -18.56128478 -4.37689685 0 0 Z " fill="#2AA81B" transform="translate(285,131)"/>
<path d="M0 0 C0.97453125 0.2165625 1.9490625 0.433125 2.953125 0.65625 C35.89760139 8.74787578 62.66179278 30.42436214 80.4453125 58.84765625 C97.3012398 86.85404872 102.71953352 120.96635799 95.390625 152.86328125 C87.15071049 184.91900838 67.26471238 214.51856363 38.72265625 231.83984375 C9.40351414 249.06861798 -24.51220105 256.41691187 -58 248 C-59.21042969 247.69835937 -60.42085938 247.39671875 -61.66796875 247.0859375 C-68.42774944 245.2725176 -74.63791506 243.00957243 -80.890625 239.85546875 C-89.38418052 237.51867395 -98.69150786 241.0159452 -106.9375 243.1875 C-116.91231627 245.73977149 -126.8983079 248.21266718 -136.9375 250.5 C-138.07372803 250.76707764 -139.20995605 251.03415527 -140.38061523 251.30932617 C-141.43966064 251.54756104 -142.49870605 251.7857959 -143.58984375 252.03125 C-144.51659912 252.24330078 -145.44335449 252.45535156 -146.39819336 252.67382812 C-149.24303506 253.03046775 -151.25989288 252.82141783 -154 252 C-154.66 251.34 -155.32 250.68 -156 250 C-155.8089216 247.25484038 -155.47382453 244.702515 -155 242 C-154.84208984 241.09733398 -154.68417969 240.19466797 -154.52148438 239.26464844 C-153.95272599 236.13027268 -153.35573653 233.00243647 -152.75 229.875 C-152.53110107 228.73716064 -152.31220215 227.59932129 -152.08666992 226.42700195 C-150.6341187 218.97872559 -149.02913468 211.57885322 -147.3125 204.1875 C-146.90683435 202.3868803 -146.50185602 200.58610557 -146.09765625 198.78515625 C-145.45647607 195.93354778 -144.7637076 193.13114271 -143.99609375 190.30859375 C-142.25595162 182.88337995 -143.77415885 178.09969579 -147.04248047 171.44091797 C-152.76518604 159.69107787 -155.77961229 146.05010057 -156 133 C-156.01901367 132.27345215 -156.03802734 131.5469043 -156.05761719 130.79833984 C-156.92248098 95.33183539 -146.15751727 63.26657661 -122 37 C-121.20980469 36.12730469 -120.41960937 35.25460938 -119.60546875 34.35546875 C-103.55557309 17.45383734 -81.98532083 5.44067984 -59.3125 0.3125 C-58.41466797 0.10044922 -57.51683594 -0.11160156 -56.59179688 -0.33007812 C-38.00132207 -4.64742649 -18.56128478 -4.37689685 0 0 Z M-103.54296875 57.26953125 C-114.52147928 69.4698156 -122.58172114 84.95357178 -126 101 C-126.17515137 101.80469727 -126.35030273 102.60939453 -126.53076172 103.43847656 C-127.92734999 110.34348605 -128.30424228 116.96658377 -128.25 124 C-128.25773437 125.00289063 -128.26546875 126.00578125 -128.2734375 127.0390625 C-128.24723881 137.17795739 -126.47305519 146.49430151 -123.1875 156.0625 C-122.79763916 157.22628174 -122.79763916 157.22628174 -122.39990234 158.41357422 C-120.67028158 163.4424229 -118.65856295 168.10764195 -115.8828125 172.6640625 C-112.83995822 180.71550879 -116.27582588 190.15756755 -118 198.25 C-118.43105191 200.29436251 -118.85975412 202.33914931 -119.28393555 204.38494873 C-119.66726254 206.23068095 -120.05803445 208.07486238 -120.44921875 209.91894531 C-121.11731614 213.13461361 -121.11731614 213.13461361 -121 217 C-111.84494314 216.42173129 -103.23287561 214.25853319 -94.36914062 211.99609375 C-85.20329339 209.7620855 -79.46533268 209.93218914 -71 214.3125 C-49.464348 224.90007164 -21.92513987 226.6248493 1.00341797 219.36572266 C26.17171299 210.65148574 48.11839698 193.41414173 59.98510742 169.27929688 C71.47053969 144.70141712 74.07011761 116.65637775 65.22851562 90.72924805 C55.43773871 63.88390303 35.66273216 44.05350945 10 32 C-29.67942504 15.031261 -74.18907682 26.82379212 -103.54296875 57.26953125 Z " fill="#FCFEFC" transform="translate(285,131)"/>
<path d="M0 0 C6.32774944 4.06536231 8.52040085 9.46278088 11.375 16.25 C11.82488281 17.24902344 12.27476562 18.24804688 12.73828125 19.27734375 C15.25911895 25.13886606 17.30565087 30.57539525 16 37 C14.46875 39.56640625 14.46875 39.56640625 12.5 41.5625 C9.93550597 44.59898679 9.02510727 45.89622328 8.0625 49.875 C9.11895892 60.50297678 21.58000766 70.37706562 29.296875 76.7578125 C40.63629381 86.83982829 40.63629381 86.83982829 54.05859375 92.37890625 C57.49533754 91.93619158 58.61425454 91.14294628 61.0625 88.75 C61.74570312 88.11578125 62.42890625 87.4815625 63.1328125 86.828125 C64.58674804 85.40460653 66.01701916 83.95690342 67.4375 82.5 C71.91251897 79.8804767 77.06908876 81.54994405 81.91821289 82.68017578 C85.06561893 83.50863813 88.18878364 84.39894224 91.3125 85.3125 C92.38306641 85.60833984 93.45363281 85.90417969 94.55664062 86.20898438 C96.10061523 86.65661133 96.10061523 86.65661133 97.67578125 87.11328125 C98.60302002 87.37923096 99.53025879 87.64518066 100.4855957 87.91918945 C103.41777978 89.17958162 104.9949853 90.5278641 107 93 C108.04526291 98.51138627 107.14393411 101.34201821 104.0625 106 C97.82493844 114.1946912 90.46625871 121.32131137 80 123 C57.6593311 124.27241488 39.5899104 116.39521504 22 103 C21.11441406 102.33742188 20.22882813 101.67484375 19.31640625 100.9921875 C1.43710349 87.01817078 -21.170776 65.22318658 -24.8125 41.4609375 C-24.874375 40.64882812 -24.93625 39.83671875 -25 39 C-25.103125 37.77539062 -25.20625 36.55078125 -25.3125 35.2890625 C-25.96899928 23.76537572 -22.80184605 16.42554253 -15.5 7.5625 C-11.052139 2.80182241 -6.88957176 -1.29179471 0 0 Z " fill="#FCFEFC" transform="translate(217,194)"/>
</svg>
